<?xml version="1.0" encoding="UTF-8"?>
<!DOCTYPE svg PUBLIC "-//W3C//DTD SVG 1.1//EN" "http://www.w3.org/Graphics/SVG/1.1/DTD/svg11.dtd">
<!-- Creator: CorelDRAW 2019 (64-Bit) -->
<svg xmlns="http://www.w3.org/2000/svg" xml:space="preserve" width="180.454mm" height="146.117mm" version="1.1" style="shape-rendering:geometricPrecision; text-rendering:geometricPrecision; image-rendering:optimizeQuality; fill-rule:evenodd; clip-rule:evenodd"
viewBox="0 0 182.1636 147.5009"
 xmlns:xlink="http://www.w3.org/1999/xlink"
 xmlns:xodm="http://www.corel.com/coreldraw/odm/2003">
 <defs>
  <style type="text/css">
   <![CDATA[
    .fil0 {fill:black}
   ]]>
  </style>
 </defs>
 <g id="Layer_x0020_1">
  <metadata id="CorelCorpID_0Corel-Layer"/>
  <g id="_254775264">
   <path class="fil0" d="M28.4675 0l125.0293 0c10.7894,0.501 21.0564,7.1765 25.6433,16.9918 2.2861,4.4623 2.9135,9.4997 3.0235,14.4555l0 7.434c-0.5604,1.9766 -2.2125,3.7689 -4.3883,3.7318 -2.3746,0.214 -4.7122,-1.8072 -4.6238,-4.2408 0.0152,-4.7716 0.148,-9.7056 -1.785,-14.1895 -3.599,-9.2783 -13.1638,-15.7754 -23.1208,-15.6945 -38.3502,0 -76.7075,-0.0291 -115.058,0.0152 -12.7294,0 -24.1241,11.1651 -24.3158,23.9023 -0.0588,27.0592 0,54.1252 -0.0292,81.1918 -0.0593,5.3764 1.6816,10.7454 4.8971,15.0597 4.4617,6.0993 11.8665,9.9932 19.4479,10.0007 38.5787,-0.0147 77.165,-0.0075 115.7437,0 10.5097,-0.0222 20.3111,-7.6772 23.1803,-17.7371 1.6813,-5.6194 0.7969,-11.5345 1.017,-17.2943 -43.4613,-0.0147 -86.9217,0.0075 -130.3829,-0.0147 -4.676,0.1546 -9.4625,-3.5768 -9.3443,-8.4811 -0.0519,-16.2032 -0.037,-32.4059 -0.0074,-48.609 -0.0885,-2.3379 1.7997,-4.7053 4.226,-4.6979 2.6031,-0.4057 5.0739,2.0057 4.8013,4.602 -0.0371,14.5068 0.0147,29.0061 -0.0298,43.5129 0.0298,1.2018 -0.0297,2.4484 0.3613,3.6063 0.6271,1.0766 1.9252,0.8038 2.9575,0.8702 41.2857,-0.037 82.5784,0 123.8637,-0.0222 3.2373,0.1328 6.7781,-0.4275 9.7508,1.1651 2.1973,1.1212 2.8463,3.6878 2.8387,5.9812l0 18.0097c-0.6933,7.5008 -3.8722,14.8537 -9.4547,20.0013 -4.5212,4.3663 -10.4948,7.1242 -16.7123,7.9503l-130.3832 0c-13.0095,-1.6297 -24.0276,-12.6482 -25.6133,-25.6652l0 -95.8167c1.0105,-7.5964 5.0373,-14.7501 11.0551,-19.4991 4.9119,-3.9823 11.1361,-6.129 17.4124,-6.5199z"/>
   <path class="fil0" d="M62.3341 42.5982c8.4812,-2.3007 17.9356,4.0491 18.9463,12.7739 0.4794,5.3689 0.081,10.7823 0.2213,16.173 0.1993,4.9488 -1.8732,9.9862 -5.8116,13.0688 -4.9044,3.9972 -12.331,4.5136 -17.7223,1.1948 -4.6534,-2.7212 -7.6628,-8.0611 -7.4637,-13.467 0.037,-5.1698 -0.0074,-10.347 0.0223,-15.5242 0.1771,-6.682 5.2804,-12.7886 11.8077,-14.2193zm1.1795 8.2968l0 0c-2.3817,0.9444 -4.3436,3.2674 -4.3213,5.9075 0,5.6419 -0.0445,11.2841 0.0218,16.9257 0.2437,4.5061 5.7009,7.3678 9.6467,5.3472 2.3527,-1.055 3.9972,-3.496 3.9533,-6.0992 0.0068,-5.4059 0.066,-10.8193 -0.0298,-16.2323 -0.1327,-4.44 -5.2291,-7.486 -9.2708,-5.8489z"/>
   <path class="fil0" d="M99.961 42.576c8.0463,-1.991 17.243,3.0608 19.2932,11.2028 0.7082,3.1344 -2.618,6.2026 -5.6714,5.0003 -2.0725,-0.5312 -2.7875,-2.6403 -3.5475,-4.3805 -2.2932,-4.2261 -8.7464,-4.993 -11.9104,-1.328 -2.8544,3.0016 -1.6223,7.4192 -1.8807,11.1363 0.1402,3.4002 -0.3316,6.8587 0.3021,10.2218 1.276,4.7201 7.9207,6.7333 11.5494,3.422 2.4633,-1.6667 2.3234,-5.7084 5.5389,-6.4309 3.0899,-1.1577 6.3797,2.1017 5.5459,5.1995 -2.0428,7.6331 -10.4135,12.5153 -18.0982,11.1949 -7.1612,-0.9215 -13.3713,-7.2051 -13.5993,-14.5285 -0.1478,-5.4944 -0.177,-11.0111 0.0221,-16.5055 0.2283,-6.888 5.8111,-12.8618 12.4559,-14.2044z"/>
   <path class="fil0" d="M124.6528 46.4036c-0.0147,-2.3082 2.1166,-4.307 4.4024,-4.2111 2.3162,-0.1255 4.4251,1.8957 4.4188,4.2111 0.0582,4.1598 -0.0152,8.3266 0.0139,12.4937 5.1777,-5.0888 10.1999,-10.34 15.4509,-15.3405 2.014,-1.9909 5.8345,-1.3273 6.9843,1.2834 0.9363,1.7626 0.4201,4.0343 -1.0258,5.3689 -3.6724,3.7245 -7.4042,7.3975 -11.0905,11.107 4.1518,6.1284 8.3618,12.2204 12.544,18.3344 1.2826,1.6371 1.3055,4.1153 0.0226,5.7672 -1.7115,2.1239 -5.4799,2.0942 -7.0069,-0.2362 -4.0039,-5.7969 -7.9799,-11.6154 -11.9469,-17.4345 -1.3284,1.2759 -2.6401,2.5814 -3.9317,3.8944 -0.0581,4.1741 0.1112,8.3481 -0.0658,12.5154 -0.5021,2.9427 -4.1517,4.425 -6.6375,2.9129 -1.5417,-0.8627 -2.2716,-2.6848 -2.1541,-4.388 0.0223,-12.0953 -0.0142,-24.1901 0.0223,-36.2781z"/>
  </g>
 </g>
</svg>
